<svg xmlns="http://www.w3.org/2000/svg" xmlns:xlink="http://www.w3.org/1999/xlink">
  <symbol id="user" viewBox="0 0 24 24">
    <path fill-rule="evenodd" clip-rule="evenodd" d="M12 6C10.343 6 9 7.343 9 9C9 10.657 10.343 12 12 12C13.656 12 15 10.657 15 9C15 7.343 13.656 6 12 6ZM12 10C11.447 10 11 9.553 11 9C11 8.448 11.447 8 12 8C12.553 8 13 8.448 13 9C13 9.553 12.553 10 12 10ZM12 0C5.372 0 0 5.372 0 12C0 18.627 5.372 24 12 24C18.627 24 24 18.627 24 12C24 5.372 18.627 0 12 0ZM12 22C6.478 22 2 17.523 2 12C2 6.478 6.478 2 12 2C17.522 2 22 6.478 22 12C22 17.523 17.522 22 12 22Z"/>
    <path d="M11 16H13C14.103 16 15 16.896 15 18H17C17 15.791 15.209 14 13 14H11C8.791 14 7 15.791 7 18H9C9 16.896 9.897 16 11 16Z"/>
  </symbol>
  <symbol id="shopping-basket" viewBox="0 0 24 24">
    <path fill-rule="evenodd" clip-rule="evenodd" d="M12 14C11.447 14 11 14.447 11 15V19C11 19.552 11.447 20 12 20C12.552 20 13 19.552 13 19V15C13 14.447 12.552 14 12 14ZM8 14C7.447 14 7 14.447 7 15V19C7 19.552 7.447 20 8 20C8.552 20 9 19.552 9 19V15C9 14.447 8.552 14 8 14ZM16 14C15.447 14 15 14.447 15 15V19C15 19.552 15.447 20 16 20C16.553 20 17 19.552 17 19V15C17 14.447 16.553 14 16 14ZM22 6H2C0.896 6 0 6.895 0 8V10C0 11.104 0.896 12 2 12H22C23.104 12 24 11.104 24 10V8C24 6.895 23.104 6 22 6ZM22 10H2V8H22V10Z"/>
    <path d="M20.848 12L19.266 22H4.734L3.306 12H21H20.848ZM23 10H1L3 24H21L23 10Z"/>
    <path d="M19 0H15V2H17.614L19.114 6H4.886L6.386 2H9V0H5L2 8H22L19 0Z"/>
  </symbol>
  <symbol id="arrow-right" viewBox="0 0 24 24">
    <path d="M8.122 24l-4.122-4 8-8-8-8 4.122-4 11.878 12z"/>
  </symbol>
  <symbol id="close" viewBox="0 0 24 24">
    <path d="M24 20.188l-8.315-8.209 8.2-8.282-3.697-3.697-8.212 8.318-8.31-8.203-3.666 3.666 8.321 8.24-8.206 8.313 3.666 3.666 8.237-8.318 8.285 8.203z"/>
  </symbol>
  <symbol id="menu-close" viewBox="0 0 24 24">
    <path fill-rule="evenodd" clip-rule="evenodd" d="M13.537 12L19.683 18.146C20.107 18.57 20.107 19.258 19.683 19.682C19.259 20.106 18.571 20.106 18.147 19.682L12 13.537L5.855 19.683C5.431 20.107 4.743 20.107 4.319 19.683C3.895 19.259 3.895 18.571 4.319 18.147L10.463 12L4.318 5.854C3.894 5.43 3.894 4.742 4.318 4.317C4.742 3.893 5.43 3.893 5.854 4.317L12 10.463L18.147 4.317C18.571 3.893 19.259 3.893 19.683 4.317C20.107 4.741 20.107 5.429 19.683 5.854L13.537 12Z" />
  </symbol>
  <symbol id="star" viewBox="0 0 24 24">
    <path d="M12 .587l3.668 7.568 8.332 1.151-6.064 5.828 1.48 8.279-7.416-3.967-7.417 3.967 1.481-8.279-6.064-5.828 8.332-1.151z"/>
  </symbol>
  <symbol id="menu" viewBox="0 0 24 24">
    <path fill-rule="evenodd" clip-rule="evenodd" d="M3 7H21C21.553 7 22 6.553 22 6C22 5.448 21.553 5 21 5H3C2.447 5 2 5.448 2 6C2 6.553 2.447 7 3 7ZM21 11H3C2.447 11 2 11.448 2 12C2 12.553 2.447 13 3 13H21C21.553 13 22 12.553 22 12C22 11.448 21.553 11 21 11ZM21 17H3C2.447 17 2 17.447 2 18C2 18.553 2.447 19 3 19H21C21.553 19 22 18.553 22 18C22 17.447 21.553 17 21 17Z" />
  </symbol>
  <symbol id="play" viewBox="0 0 18 22">
    <path fill-rule="evenodd" d="M16.750,9.215 L2.693,0.412 C1.115,0.564 0.10,0.223 0.10,2.166 L0.10,19.828 C0.10,21.768 1.115,22.559 2.693,21.577 L16.829,12.777 C18.413,11.798 18.333,10.194 16.750,9.215 Z"
    ></path>
  </symbol>
  <symbol id="check" viewBox="0 0 12 10">
    <path fill-rule="evenodd" d="M12.007,2.506 L4.799,10.007 L-0.007,5.007 L2.396,2.506 L4.799,5.007 L9.604,0.006 L12.007,2.506 Z"/>
  </symbol>
  <symbol id="quotes" viewBox="0 0 24 24">
    <path d="M14.017 21v-7.391c0-5.704 3.731-9.57 8.983-10.609l.995 2.151c-2.432.917-3.995 3.638-3.995 5.849h4v10h-9.983zm-14.017 0v-7.391c0-5.704 3.748-9.57 9-10.609l.996 2.151c-2.433.917-3.996 3.638-3.996 5.849h3.983v10h-9.983z"/>
  </symbol>
  <symbol id="grid" viewBox="0 0 24 24">
    <path fill-rule="evenodd" clip-rule="evenodd" d="M15.1 15.1V22.1H22.1V15.1H15.1ZM22.1 2.1H15.1V9.1H22.1V2.1ZM9.10001 15.1H2.10001V22.1H9.10001V15.1ZM9.10001 2.1H2.10001V9.1H9.10001V2.1ZM13.1 24.1H24.1V13.1H13.1V24.1ZM13.1 0.0999985V11.1H24.1V0.0999985H13.1ZM0.100006 13.1V24.1H11.1V13.1H0.100006ZM0.100006 0.0999985V11.1H11.1V0.0999985H0.100006Z"/>
  </symbol>
  <symbol id="grid-sm" viewBox="0 0 24 24">
    <path fill-rule="evenodd" clip-rule="evenodd" d="M20 20V22H22V20H20ZM22 11H20V13H22V11ZM22 2H20V4H22V2ZM13 20H11V22H13V20ZM13 11H11V13H13V11ZM13 2H11V4H13V2ZM4 20H2V22H4V20ZM4 11H2V13H4V11ZM4 2H2V4H4V2ZM18 24H24V18H18V24ZM18 9V15H24V9H18ZM18 0V6H24V0H18ZM9 18V24H15V18H9ZM9 9V15H15V9H9ZM9 0V6H15V0H9ZM0 18V24H6V18H0ZM0 9V15H6V9H0ZM0 0V6H6V0H0Z" />
  </symbol>
  <symbol id="list" viewBox="0 0 24 24">
    <path fill-rule="evenodd" clip-rule="evenodd" d="M11.1 20.1V22.1H22.1V20.1H11.1ZM22.1 11.1H11.1V13.1H22.1V11.1ZM22.1 2.1H11.1V4.1H22.1V2.1ZM4.10001 20.1H2.10001V22.1H4.10001V20.1ZM4.10001 11.1H2.10001V13.1H4.10001V11.1ZM4.10001 2.1H2.10001V4.1H4.10001V2.1ZM9.10001 24.1H24.1V18.1H9.10001V24.1ZM9.10001 9.1V15.1H24.1V9.1H9.10001ZM9.10001 0.0999985V6.1H24.1V0.0999985H9.10001ZM0.100006 18.1V24.1H6.10001V18.1H0.100006ZM0.100006 9.1V15.1H6.10001V9.1H0.100006ZM0.100006 0.0999985V6.1H6.10001V0.0999985H0.100006Z"/>
  </symbol>
  <symbol id="chevron-left" viewBox="0 0 24 24">
    <path d="M16.67 0l2.83 2.829-9.339 9.175 9.339 9.167-2.83 2.829-12.17-11.996z"/>
  </symbol>
  <symbol id="chevron-right" viewBox="0 0 24 24">
    <path d="M7.33 24l-2.83-2.829 9.339-9.175-9.339-9.167 2.83-2.829 12.17 11.996z"/>
  </symbol>
  <symbol id="ticket" viewBox="0 0 24 24">
    <path d="M20 5C21.103 5 22 5.897 22 7V7.417C20.235 8.19 19 9.954 19 12C19 14.047 20.235 15.81 22 16.582V17C22 18.103 21.103 19 20 19H4C2.897 19 2 18.103 2 17V16.582C3.765 15.81 5 14.047 5 12C5 9.954 3.765 8.19 2 7.417V7C2 5.897 2.897 5 4 5H20ZM20 3H4C1.791 3 0 4.791 0 7V9C1.657 9 3 10.343 3 12C3 13.656 1.657 15 0 15V17C0 19.209 1.791 21 4 21H20C22.209 21 24 19.209 24 17V15C22.343 15 21 13.656 21 12C21 10.343 22.343 9 24 9V7C24 4.791 22.209 3 20 3Z" />
    <path fill-rule="evenodd" clip-rule="evenodd" d="M7 7V9H9V7H7ZM7 13H9V11H7V13ZM7 17H9V15H7V17Z" />
  </symbol>
  <symbol id="clock" viewBox="0 0 24 24">
    <path fill-rule="evenodd" clip-rule="evenodd" d="M12 1C5.925 1 1 5.925 1 12C1 18.075 5.925 23 12 23C18.075 23 23 18.075 23 12C23 5.925 18.075 1 12 1ZM12 21C7.029 21 3 16.971 3 12C3 7.029 7.029 3 12 3C16.971 3 21 7.029 21 12C21 16.971 16.971 21 12 21ZM16 12H13V7C13 6.448 12.553 6 12 6C11.448 6 11 6.448 11 7V13C11 13.553 11.448 14 12 14H16C16.553 14 17 13.553 17 13C17 12.448 16.553 12 16 12Z" />
  </symbol>
  <symbol id="venue" viewBox="0 0 24 24">
    <path fill-rule="evenodd" clip-rule="evenodd" d="M22 10V7H24V1H0V7H2V10V15V21H0V23H2H5H10V21V17C10 15.896 10.896 15 12 15C13.104 15 14 15.896 14 17V21V23H19H22H24V21H22V15V10ZM2 3H22V5H19H5H2V3ZM19 21H16V17C16 14.794 14.206 13 12 13C9.794 13 8 14.794 8 17V21H5H4V15V10V7H5H19H20V10V15V21H19Z" />
  </symbol>
  <symbol id="pin" viewBox="0 0 24 24">
    <path d="M12 2C16.411 2 20 5.507 20 9.817C20 15.842 13.824 21.487 12.003 21.984C10.181 21.472 4 15.803 4 9.817C4 5.507 7.589 2 12 2ZM12 0C6.478 0 2 4.396 2 9.817C2 17.15 9.741 24 12 24C14.26 24 22 17.286 22 9.817C22 4.396 17.523 0 12 0Z" />
    <path d="M12 7C13.103 7 14 7.897 14 9C14 10.103 13.103 11 12 11C10.897 11 10 10.103 10 9C10 7.897 10.897 7 12 7ZM12 5C9.791 5 8 6.791 8 9C8 11.209 9.791 13 12 13C14.209 13 16 11.209 16 9C16 6.791 14.209 5 12 5Z" />
  </symbol>
  <symbol id="piggy" viewBox="0 0 48 48">
    <path fill-rule="evenodd" clip-rule="evenodd" d="M14 20C15.104 20 16 20.896 16 22C16 23.104 15.104 24 14 24C12.896 24 12 23.104 12 22C12 20.896 12.896 20 14 20Z" />
    <path d="M35 3C40.514 3 45 7.486 45 13C45 18.514 40.514 23 35 23C29.486 23 25 18.514 25 13C25 7.486 29.486 3 35 3ZM35 0C27.82 0 22 5.82 22 13C22 20.18 27.82 26 35 26C42.18 26 48 20.18 48 13C48 5.82 42.18 0 35 0Z" />
    <path d="M34.318 18.797C32.552 18.617 30.806 17.987 29.457 17.015L31.077 14.62C32.229 15.431 33.309 15.916 34.426 16.097V13.936C31.528 13.27 30.051 12.28 30.051 10.047V10.01C30.051 7.885 31.6 6.409 34.354 6.211V5.185H36.227V6.265C37.704 6.427 38.946 6.932 40.026 7.67L38.549 10.083C37.811 9.56 36.947 9.2 36.137 9.002V11.091C39 11.757 40.44 12.783 40.44 15.016V15.052C40.44 17.249 38.748 18.599 36.191 18.833V20.598H34.319L34.318 18.797ZM34.443 8.84C33.561 8.912 33.219 9.272 33.219 9.74V9.776C33.219 10.244 33.471 10.514 34.443 10.784V8.84ZM37.324 15.286V15.25C37.324 14.764 37.054 14.494 36.119 14.224V16.204C36.947 16.114 37.324 15.808 37.324 15.286Z" />
    <path d="M44.998 27C44.975 31.4 42.534 35.614 38.285 38.568L37 39.463V45H31V42.019L27.701 42.349C26.739 42.446 25.937 42.491 25.179 42.491C24.27 42.491 23.339 42.436 22.342 42.323L19 41.945V45H13V39.254L11.769 38.356C9.572 36.763 7.839 34.788 6.751 32.643L5.921 31H3V25H5.348L6.038 22.967C6.887 20.459 8.57 18.121 10.904 16.203L12 15.306V10.295L16.445 12.959L17.739 12.543C18.155 12.409 18.578 12.302 19 12.191V9.093C18.259 9.264 17.53 9.459 16.821 9.687L9 5V13.888C6.286 16.117 4.25 19 3.196 22H2.524C1.13 22 0 23.214 0 24.699V31.31C0 32.796 1.13 34 2.524 34H4.079C5.407 36.617 7 38.929 10 40.784V45.475C10 46.87 11.219 48 12.705 48H19.319C20.805 48 22 46.87 22 45.476V45.304C23 45.421 24.098 45.491 25.174 45.491C26.131 45.491 27.074 45.428 28 45.335V45.477C28 46.87 29.205 48 30.69 48H37.304C38.791 48 40 46.87 40 45.476V41.032C44.981 37.642 47.978 32.621 48 27.001L44.998 27Z" />
  </symbol>
  <symbol id="book" viewBox="0 0 48 48">
    <path d="M31 7H13V17H31V7ZM28 14H16V10H28V14Z" />
    <path d="M32 26H24V29H32V26Z" />
    <path d="M37 32H24V35H37V32Z" />
    <path d="M48 26H35V29H48V26Z" />
    <path d="M48 20H24V23H48V20Z" />
    <path d="M9 38V3H35V17H38V0H6C2.687 0 0 2.687 0 6V42H0.101C0.035 42.323 0 42.657 0 43C0 45.762 2.239 48 5 48H38V45C36.896 45 36 44.103 36 43C36 41.896 36.896 41 38 41V38H9ZM6 3V38H5C4.288 38 3.613 38.153 3 38.422V6C3 4.346 4.346 3 6 3ZM5 45C3.897 45 3 44.103 3 43C3 41.896 3.897 41 5 41H33.422C33.153 41.613 33 42.288 33 43C33 43.712 33.153 44.387 33.422 45H5Z" />
  </symbol>
  <symbol id="review-ballon" viewBox="0 0 48 48">
    <path d="M34 3C35.654 3 37 4.346 37 6V26C37 27.654 35.654 29 34 29H16.992L8 33.26V29.364L5.5 28.942C4.051 28.697 3 27.46 3 26V6C3 4.346 4.346 3 6 3H34ZM34 0H6C2.687 0 0 2.687 0 6V26C0 28.971 2.165 31.421 5 31.899V38L17.667 32H34C37.313 32 40 29.313 40 26V6C40 2.687 37.313 0 34 0Z" />
    <path d="M43 8.09V11.184C44.161 11.599 45 12.698 45 14V34C45 35.46 43.949 36.697 42.501 36.941L40 37.363V41.259L31.008 37H15V40H30.333L43 46V39.899C45.835 39.42 48 36.97 48 34V14C48 11.028 45.836 8.567 43 8.09Z" />
    <path d="M19.992 23.5C19.938 23.5 19.835 23.487 19.746 23.399C19.152 22.735 13.433 16.382 12.773 15.721C11.951 14.902 11.5 13.817 11.5 12.662C11.5 11.509 11.951 10.424 12.77 9.608C13.523 8.856 14.426 8.506 15.613 8.506C16.462 8.506 17.647 9.211 18.948 10.49L20.017 11.541L21.069 10.473C22.268 9.256 23.523 8.5 24.347 8.5C25.472 8.5 26.361 8.886 27.229 9.753C28.049 10.569 28.5 11.654 28.5 12.808C28.5 13.963 28.049 15.048 27.229 15.865L20.196 23.442C20.154 23.482 20.058 23.5 19.992 23.5Z" />
    <path d="M24.352 10C24.954 10.001 25.493 10.141 26.171 10.816C26.705 11.349 27 12.056 27 12.809C27 13.556 26.71 14.26 26.182 14.791C26.105 14.868 25.95 15.035 25.091 15.96L20.428 20.984L20.005 21.441C18.114 19.343 14.387 15.215 13.829 14.656C13.295 14.123 13 13.415 13 12.663C13 11.911 13.294 11.204 13.832 10.668C14.303 10.198 14.819 10.006 15.613 10.006C15.62 10.006 16.363 10.052 17.896 11.56L20.034 13.662L22.138 11.526C23.23 10.416 24.099 10.02 24.352 10ZM24.347 7C22.872 7 21.228 8.174 20 9.421C18.732 8.174 17.139 7.006 15.613 7.006C14.122 7.006 12.806 7.452 11.712 8.546C9.43 10.819 9.43 14.507 11.712 16.781C12.363 17.433 18.688 24.461 18.688 24.461C19.048 24.82 19.521 25 19.992 25C20.465 25 20.936 24.82 21.297 24.461L27.29 18C27.29 18 28.27 16.943 28.288 16.927C30.57 14.653 30.57 10.964 28.288 8.691C27.155 7.561 25.89 7 24.347 7Z" />
  </symbol>
  <symbol id="plus-circle" viewBox="0 0 24 24">
    <path d="M12 2c5.514 0 10 4.486 10 10s-4.486 10-10 10-10-4.486-10-10 4.486-10 10-10zm0-2c-6.627 0-12 5.373-12 12s5.373 12 12 12 12-5.373 12-12-5.373-12-12-12zm6 13h-5v5h-2v-5h-5v-2h5v-5h2v5h5v2z"/>
  </symbol>
  <symbol id="minus-circle" viewBox="0 0 24 24">
    <path d="M12 2c5.514 0 10 4.486 10 10s-4.486 10-10 10-10-4.486-10-10 4.486-10 10-10zm0-2c-6.627 0-12 5.373-12 12s5.373 12 12 12 12-5.373 12-12-5.373-12-12-12zm6 13h-12v-2h12v2z"/>
  </symbol>
  <symbol id="sun" viewBox="0 0 24 24" stroke-width="2" fill="none">
    <path stroke-linecap="round" stroke-linejoin="round" d="M12 3v2.25m6.364.386l-1.591 1.591M21 12h-2.25m-.386 6.364l-1.591-1.591M12 18.75V21m-4.773-4.227l-1.591 1.591M5.25 12H3m4.227-4.773L5.636 5.636M15.75 12a3.75 3.75 0 11-7.5 0 3.75 3.75 0 017.5 0z" />
  </symbol>
  <symbol id="moon" viewBox="0 0 24 24" stroke-width="2" fill="none">
    <path stroke-linecap="round" stroke-linejoin="round" d="M21.752 15.002A9.718 9.718 0 0118 15.75c-5.385 0-9.75-4.365-9.75-9.75 0-1.33.266-2.597.748-3.752A9.753 9.753 0 003 11.25C3 16.635 7.365 21 12.75 21a9.753 9.753 0 009.002-5.998z" />
  </symbol>
  <symbol id="bell" viewBox="0 0 24 24">
    <path d="M21.571 16.178C21.546 16.16 19.004 14.272 19.004 8.002C19.004 4.143 15.863 1.002 12.004 1.002C8.14399 1.002 5.00399 4.143 5.00399 8.002C5.00399 14.272 2.46199 16.161 2.44899 16.17C2.08199 16.414 1.91899 16.869 2.04699 17.293C2.17399 17.715 2.56399 18.002 3.00399 18.002H21.004C21.439 18.002 21.817 17.717 21.949 17.303C22.081 16.889 21.926 16.432 21.571 16.178ZM5.14399 16.002C6.04899 14.52 7.00399 12.006 7.00399 8.002C7.00399 5.246 9.24699 3.003 12.004 3.003C14.761 3.003 17.004 5.246 17.004 8.002C17.004 12.006 17.959 14.52 18.863 16.002H5.14399ZM14.236 20.139C13.758 19.86 13.148 20.024 12.87 20.5C12.592 20.976 11.978 21.141 11.502 20.863C11.352 20.775 11.226 20.65 11.139 20.5C10.861 20.021 10.249 19.859 9.77199 20.139C9.29399 20.416 9.13199 21.028 9.40999 21.506C9.67199 21.955 10.049 22.332 10.499 22.594C10.972 22.867 11.488 22.998 11.999 22.998C13.035 22.998 14.044 22.461 14.6 21.504C14.877 21.027 14.714 20.416 14.236 20.139Z" />
  </symbol>
  <symbol id="share" viewBox="0 0 24 24">
    <path d="M5 7c2.761 0 5 2.239 5 5s-2.239 5-5 5-5-2.239-5-5 2.239-5 5-5zm11.122 12.065c-.073.301-.122.611-.122.935 0 2.209 1.791 4 4 4s4-1.791 4-4-1.791-4-4-4c-1.165 0-2.204.506-2.935 1.301l-5.488-2.927c-.23.636-.549 1.229-.943 1.764l5.488 2.927zm7.878-15.065c0-2.209-1.791-4-4-4s-4 1.791-4 4c0 .324.049.634.122.935l-5.488 2.927c.395.535.713 1.127.943 1.764l5.488-2.927c.731.795 1.77 1.301 2.935 1.301 2.209 0 4-1.791 4-4z"/>
  </symbol>
</svg>
